# Blender v2.91.2 OBJ File: 'camera.blend'
# www.blender.org
mtllib camera.mtl
o Cube
v 0.555556 0.791664 -0.555556
v 0.555556 -0.781174 -0.555556
v 0.555556 0.880670 0.555556
v 0.555556 -0.795860 0.555556
v -0.555556 0.791664 -0.555556
v -0.555556 -0.781174 -0.555556
v -0.555556 0.880670 0.555556
v -0.555556 -0.795860 0.555556
v 0.840000 0.024656 -0.706667
v -0.840000 0.024656 -0.706667
v -0.833593 -0.107382 0.853333
v -0.833593 0.481534 0.853333
v 0.833593 0.481534 0.853333
v 0.833593 -0.107382 0.853333
v -0.750000 -0.881041 0.000000
v 0.000000 -0.875534 -0.750000
v -0.750000 0.731507 0.750000
v 0.750000 -0.540685 0.750000
v 0.000000 0.941221 0.750000
v 0.750000 0.907844 0.000000
v 0.000000 -0.886548 0.750000
v -0.750000 0.907844 0.000000
v 0.000000 0.874466 -0.750000
v 0.750000 -0.881041 0.000000
v 0.750000 0.531243 -0.750000
v -0.986652 0.200112 0.833333
v 0.750000 0.731507 0.750000
v -0.750000 0.531243 -0.750000
v 0.000000 -0.003201 -1.000000
v 1.000000 0.325312 0.083333
v -1.000000 0.325312 0.083333
v 0.000000 0.575200 1.000000
v 0.986652 0.200112 0.833333
v -0.750000 -0.540685 0.750000
v 0.000000 -0.192489 1.000000
v -1.000000 -0.119111 0.083333
v -0.750000 -0.507642 -0.750000
v 0.750000 -0.507642 -0.750000
v 1.000000 -0.119111 0.083333
v -0.709956 0.025428 1.000000
v -0.709956 0.411956 1.000000
v 0.709956 0.411956 1.000000
v 0.709956 0.025428 1.000000
v 0.000000 1.000000 0.000000
v 0.000000 0.764885 1.000000
v -1.000000 0.631375 0.000000
v 0.000000 -1.000000 0.000000
v 1.000000 0.631375 0.000000
v 0.000000 0.497866 -1.000000
v 1.000000 0.144372 0.333333
v -1.000000 0.144372 0.333333
v 0.000000 -0.546193 1.000000
v -1.000000 -0.524163 0.000000
v 1.000000 -0.524163 0.000000
v 0.000000 -0.502134 -1.000000
v -0.946608 0.218692 1.000000
v 0.000000 0.476378 1.000000
v 0.946608 0.218692 1.000000
v 0.000000 -0.038993 1.000000
vt 0.666667 0.000000
vt 0.833333 0.000000
vt 0.833333 0.166667
vt 0.666667 0.166667
vt 1.000000 0.000000
vt 1.000000 0.166667
vt 1.000000 0.333333
vt 0.833333 0.333333
vt 0.666667 0.333333
vt 0.333333 0.251796
vt 0.333333 0.294147
vt 0.166667 0.294147
vt 0.166667 0.262533
vt 0.333333 0.333333
vt 0.166667 0.333333
vt 0.000000 0.333333
vt 0.000000 0.294147
vt 0.000000 0.251796
vt 0.333333 0.585130
vt 0.333333 0.627481
vt 0.166667 0.605229
vt 0.180556 0.554219
vt 0.333333 0.666667
vt 0.166667 0.666667
vt 0.000000 0.666667
vt 0.000000 0.582978
vt 0.000000 0.499466
vt 0.333333 0.000000
vt 0.500000 0.000000
vt 0.500000 0.166667
vt 0.333333 0.166667
vt 0.666667 0.000000
vt 0.666667 0.166667
vt 0.666667 0.333333
vt 0.500000 0.333333
vt 0.333333 0.333333
vt 0.666667 0.499466
vt 0.666667 0.582978
vt 0.500000 0.605229
vt 0.486111 0.554219
vt 0.666667 0.666667
vt 0.500000 0.666667
vt 0.333333 0.666667
vt 0.333333 0.627481
vt 0.333333 0.585130
vt 0.333333 0.832800
vt 0.333333 0.916311
vt 0.166667 0.916311
vt 0.166667 0.832800
vt 0.333333 1.000000
vt 0.166667 1.000000
vt 0.000000 1.000000
vt 0.000000 0.916311
vt 0.000000 0.832800
vt 0.444444 0.524062
vt 0.486111 0.480148
vt 0.333333 0.536449
vt 0.333333 0.478655
vt 0.333333 0.478655
vt 0.333333 0.536449
vt 0.222222 0.524062
vt 0.180556 0.480148
vt 0.333333 0.000000
vt 0.333333 0.075635
vt 0.166667 0.075635
vt 0.166667 0.000000
vt 0.333333 0.145322
vt 0.166667 0.134585
vt 0.000000 0.145322
vt 0.000000 0.075635
vt 0.000000 0.000000
vt 0.333333 0.408968
vt 0.166667 0.412639
vt 0.166667 0.333333
vt 0.000000 0.416311
vt 0.000000 0.333333
vt 0.666667 0.333333
vt 0.666667 0.416311
vt 0.500000 0.412639
vt 0.500000 0.333333
vt 0.333333 0.408968
vt 0.333333 0.333333
vt 0.333333 0.666667
vt 0.333333 0.749644
vt 0.166667 0.749644
vt 0.166667 0.666667
vt 0.000000 0.749644
vt 0.000000 0.666667
vt 0.008899 0.203115
vt 0.048341 0.235326
vt 0.000000 0.203115
vt 0.048341 0.170905
vt 0.166667 0.246063
vt 0.284993 0.235326
vt 0.324435 0.203115
vt 0.284993 0.170905
vt 0.333333 0.203115
vt 0.166667 0.160168
vn 0.1597 0.9661 -0.2027
vn -0.1597 0.9661 -0.2027
vn -0.1281 0.9882 0.0841
vn 0.1281 0.9882 0.0841
vn 0.2543 0.2668 0.9296
vn 0.2322 0.8304 0.5066
vn -0.2322 0.8304 0.5066
vn -0.2543 0.2668 0.9296
vn -0.9500 0.2179 0.2235
vn -0.6396 0.7483 0.1759
vn -0.6620 0.6698 -0.3363
vn -0.9601 0.0639 -0.2722
vn -0.1862 -0.9633 -0.1933
vn 0.1862 -0.9633 -0.1933
vn 0.1814 -0.9679 0.1743
vn -0.1814 -0.9679 0.1743
vn 0.9601 0.0639 -0.2722
vn 0.6620 0.6698 -0.3363
vn 0.6396 0.7483 0.1759
vn 0.9500 0.2179 0.2235
vn -0.3237 -0.0118 -0.9461
vn -0.2770 0.6052 -0.7463
vn 0.2770 0.6052 -0.7463
vn 0.3237 -0.0118 -0.9461
vn 0.9884 0.0000 -0.1521
vn 0.9351 0.3466 0.0745
vn 0.9384 -0.3117 0.1494
vn -0.9384 -0.3117 0.1494
vn -0.9351 0.3466 0.0745
vn -0.9884 0.0000 -0.1521
vn 0.2912 -0.6314 0.7187
vn 0.2483 -0.1520 0.9567
vn -0.2483 -0.1520 0.9567
vn -0.2912 -0.6314 0.7187
vn -0.7316 -0.6208 0.2817
vn -0.9532 -0.1531 0.2607
vn -0.9633 -0.0570 -0.2624
vn -0.7321 -0.6098 -0.3036
vn 0.7321 -0.6098 -0.3036
vn 0.9633 -0.0570 -0.2624
vn 0.9532 -0.1531 0.2607
vn 0.7316 -0.6208 0.2817
vn -0.2942 -0.5997 -0.7442
vn -0.3232 0.0116 -0.9463
vn 0.3232 0.0116 -0.9463
vn 0.2942 -0.5997 -0.7442
vn -0.6977 0.5537 0.4546
vn -0.6553 -0.4869 0.5775
vn 0.1361 0.5919 0.7944
vn -0.1361 0.5919 0.7944
vn 0.6553 -0.4869 0.5775
vn 0.6977 0.5537 0.4546
vn -0.1255 -0.4089 0.9039
vn 0.1255 -0.4089 0.9039
vn -0.0000 0.0000 1.0000
usemtl Material
s off
f 1/1/1 23/2/1 44/3/1 20/4/1
f 23/2/2 5/5/2 22/6/2 44/3/2
f 44/3/3 22/6/3 7/7/3 19/8/3
f 20/4/4 44/3/4 19/8/4 3/9/4
f 13/10/5 27/11/5 45/12/5 32/13/5
f 27/11/6 3/14/6 19/15/6 45/12/6
f 45/12/7 19/15/7 7/16/7 17/17/7
f 32/13/8 45/12/8 17/17/8 12/18/8
f 12/19/9 17/20/9 46/21/9 31/22/9
f 17/20/10 7/23/10 22/24/10 46/21/10
f 46/21/11 22/24/11 5/25/11 28/26/11
f 31/22/12 46/21/12 28/26/12 10/27/12
f 6/28/13 16/29/13 47/30/13 15/31/13
f 16/29/14 2/32/14 24/33/14 47/30/14
f 47/30/15 24/33/15 4/34/15 21/35/15
f 15/31/16 47/30/16 21/35/16 8/36/16
f 9/37/17 25/38/17 48/39/17 30/40/17
f 25/38/18 1/41/18 20/42/18 48/39/18
f 48/39/19 20/42/19 3/43/19 27/44/19
f 30/40/20 48/39/20 27/44/20 13/45/20
f 10/46/21 28/47/21 49/48/21 29/49/21
f 28/47/22 5/50/22 23/51/22 49/48/22
f 49/48/23 23/51/23 1/52/23 25/53/23
f 29/49/24 49/48/24 25/53/24 9/54/24
f 9/37/25 30/40/25 50/55/25 39/56/25
f 13/45/26 33/57/26 50/55/26 30/40/26
f 14/58/27 39/56/27 50/55/27 33/57/27
f 11/59/28 26/60/28 51/61/28 36/62/28
f 12/19/29 31/22/29 51/61/29 26/60/29
f 10/27/30 36/62/30 51/61/30 31/22/30
f 4/63/31 18/64/31 52/65/31 21/66/31
f 18/64/32 14/67/32 35/68/32 52/65/32
f 52/65/33 35/68/33 11/69/33 34/70/33
f 21/66/34 52/65/34 34/70/34 8/71/34
f 8/36/35 34/72/35 53/73/35 15/74/35
f 34/72/36 11/59/36 36/62/36 53/73/36
f 53/73/37 36/62/37 10/27/37 37/75/37
f 15/74/38 53/73/38 37/75/38 6/76/38
f 2/77/39 38/78/39 54/79/39 24/80/39
f 38/78/40 9/37/40 39/56/40 54/79/40
f 54/79/41 39/56/41 14/58/41 18/81/41
f 24/80/42 54/79/42 18/81/42 4/82/42
f 6/83/43 37/84/43 55/85/43 16/86/43
f 37/84/44 10/46/44 29/49/44 55/85/44
f 55/85/45 29/49/45 9/54/45 38/87/45
f 16/86/46 55/85/46 38/87/46 2/88/46
f 56/89/47 41/90/47 12/18/47 26/91/47
f 40/92/48 56/89/48 26/91/48 11/69/48
f 57/93/49 42/94/49 13/10/49 32/13/49
f 41/90/50 57/93/50 32/13/50 12/18/50
f 58/95/51 43/96/51 14/67/51 33/97/51
f 42/94/52 58/95/52 33/97/52 13/10/52
f 59/98/53 40/92/53 11/69/53 35/68/53
f 43/96/54 59/98/54 35/68/54 14/67/54
f 43/96/55 58/95/55 42/94/55 57/93/55 41/90/55 56/89/55 40/92/55 59/98/55
