# Blender v2.91.2 OBJ File: 'extend_gizmo.blend'
# www.blender.org
mtllib extend_gizmo.mtl
o Cube
v 0.125000 0.350000 -0.125000
v 0.500000 -0.125000 -0.125000
v 0.125000 0.350000 0.125000
v 0.500000 -0.125000 0.125000
v -0.125000 0.350000 -0.125000
v -0.125000 -0.125000 -0.500000
v -0.125000 0.350000 0.125000
v -0.125000 -0.125000 0.500000
v 0.500000 0.125000 0.125000
v -0.125000 0.125000 0.500000
v 0.500000 0.125000 -0.125000
v -0.125000 0.125000 -0.500000
v 0.125000 0.125000 -0.500000
v 0.125000 -0.125000 -0.500000
v 0.125000 0.125000 0.500000
v 0.125000 -0.125000 0.500000
v 0.125000 -0.500000 -0.125000
v -0.350000 -0.125000 -0.125000
v 0.125000 0.125000 -0.125000
v -0.350000 0.125000 -0.125000
v -0.350000 -0.125000 0.125000
v -0.350000 0.125000 0.125000
v 0.125000 0.125000 0.125000
v 0.125000 -0.500000 0.125000
v -0.125000 -0.500000 -0.125000
v -0.125000 -0.500000 0.125000
v -0.125000 0.125000 0.125000
v -0.125000 0.125000 -0.125000
v -0.125000 -0.125000 -0.125000
v -0.125000 -0.125000 0.125000
v 0.125000 -0.125000 -0.125000
v 0.125000 -0.125000 0.125000
v 0.350000 0.125000 -0.125000
v 0.350000 -0.125000 -0.125000
v 0.350000 0.125000 0.125000
v 0.350000 -0.125000 0.125000
v 0.125000 -0.125000 -0.350000
v -0.125000 -0.125000 -0.350000
v 0.125000 0.125000 -0.350000
v -0.125000 0.125000 -0.350000
v -0.125000 -0.125000 0.350000
v -0.125000 0.125000 0.350000
v 0.125000 0.125000 0.350000
v 0.125000 -0.125000 0.350000
v -0.125000 -0.350000 -0.125000
v -0.125000 -0.350000 0.125000
v 0.125000 -0.350000 -0.125000
v 0.125000 -0.350000 0.125000
v -0.187500 -0.187500 0.600000
v -0.187500 0.187500 0.600000
v 0.187500 0.187500 0.600000
v 0.187500 -0.187500 0.600000
v 0.000000 0.000000 1.000000
v 0.600000 0.187500 -0.187500
v 0.600000 -0.187500 -0.187500
v 0.600000 0.187500 0.187500
v 0.600000 -0.187500 0.187500
v 1.000000 0.000000 0.000000
v 0.187500 -0.187500 -0.600000
v -0.187500 -0.187500 -0.600000
v 0.187500 0.187500 -0.600000
v -0.187500 0.187500 -0.600000
v 0.000000 0.000000 -1.000000
v -0.600000 -0.187500 -0.187500
v -0.600000 -0.187500 0.187500
v -0.600000 0.187500 0.187500
v -0.600000 0.187500 -0.187500
v -1.000000 0.000000 0.000000
v 0.187500 0.600000 0.187500
v -0.187500 0.600000 0.187500
v 0.187500 0.600000 -0.187500
v -0.187500 0.600000 -0.187500
v 0.000000 1.000000 0.000000
v -0.187500 -0.600000 -0.187500
v -0.187500 -0.600000 0.187500
v 0.187500 -0.600000 -0.187500
v 0.187500 -0.600000 0.187500
v 0.000000 -1.000000 0.000000
vt 0.337291 0.378680
vt 0.512899 0.378680
vt 0.503541 0.384111
vt 0.346648 0.384111
vt 0.758222 0.318821
vt 0.758222 0.106274
vt 0.723619 0.106274
vt 0.723619 0.318821
vt 0.512899 0.258963
vt 0.337291 0.258963
vt 0.346648 0.253531
vt 0.503541 0.253531
vt 0.489487 0.604494
vt 0.489487 0.670791
vt 0.512899 0.684057
vt 0.512899 0.591227
vt 0.091968 0.743916
vt 0.091968 0.956463
vt 0.126571 0.956463
vt 0.126571 0.743916
vt 0.360702 0.670791
vt 0.360702 0.604494
vt 0.337291 0.591227
vt 0.337291 0.684057
vt 0.512899 0.471510
vt 0.591658 0.318821
vt 0.591658 0.531368
vt 0.337291 0.471510
vt 0.258531 0.531368
vt 0.258531 0.318821
vt 0.258531 0.743916
vt 0.591658 0.743916
vt 0.258531 0.956463
vt 0.091968 0.531368
vt 0.091968 0.318821
vt 0.091968 0.106274
vt 0.258531 0.106274
vt 0.591658 0.106274
vt 0.758222 0.531368
vt 0.758222 0.743916
vt 0.758222 0.956463
vt 0.591658 0.956463
vt 0.512899 0.166132
vt 0.337291 0.166132
vt 0.360702 0.033149
vt 0.489487 0.033149
vt 0.360702 0.817041
vt 0.360702 0.883338
vt 0.489487 0.883338
vt 0.489487 0.817041
vt 0.723619 0.743916
vt 0.723619 0.531368
vt 0.737574 0.531368
vt 0.737574 0.743916
vt 0.512899 0.803774
vt 0.512899 0.896605
vt 0.503541 0.891173
vt 0.503541 0.809206
vt 0.346648 0.678626
vt 0.503541 0.678626
vt 0.126571 0.318821
vt 0.126571 0.531368
vt 0.112615 0.531368
vt 0.112615 0.318821
vt 0.337291 0.046415
vt 0.512899 0.046415
vt 0.126571 0.106274
vt 0.337291 0.803774
vt 0.337291 0.896605
vt 0.723619 0.956463
vt 0.737574 0.318821
vt 0.850190 0.149810
vt 0.737574 0.106274
vt 0.737574 0.956463
vt 0.850190 1.000000
vt 0.425095 0.637642
vt 0.503541 0.596658
vt 0.346648 0.596658
vt 0.112615 0.956463
vt 0.000000 0.574905
vt 0.112615 0.743916
vt 0.112615 0.106274
vt 0.346648 0.171563
vt 0.425095 0.212547
vt 0.503541 0.171563
vt 0.346648 0.466079
vt 0.425095 0.425095
vt 0.503541 0.466079
vt 0.503541 0.040984
vt 0.346648 0.040984
vt 0.425095 0.000000
vt 0.346648 0.809206
vt 0.346648 0.891173
vt 0.425095 0.850190
vn -0.9701 -0.2425 0.0000
vn 1.0000 0.0000 0.0000
vn 0.2425 0.9701 0.0000
vn 0.0000 0.0000 -1.0000
vn 0.0000 1.0000 0.0000
vn 0.0000 0.0000 1.0000
vn -1.0000 -0.0000 0.0000
vn -0.0000 -1.0000 0.0000
vn 0.9701 0.0000 -0.2425
vn 0.0000 0.2425 0.9701
vn -0.2425 -0.9701 0.0000
vn 0.0000 0.9701 0.2425
vn 0.0000 0.9055 0.4244
vn 0.0000 0.9701 -0.2425
vn -0.9701 0.0000 -0.2425
vn 0.0000 -0.9701 -0.2425
vn -0.9055 0.0000 0.4244
vn 0.0000 -0.9055 0.4244
vn 0.9055 0.0000 0.4244
vn 0.4244 -0.9055 0.0000
vn -0.2425 0.0000 0.9701
vn -0.2425 0.9701 0.0000
vn -0.2425 0.0000 -0.9701
vn 0.4244 0.0000 0.9055
vn 0.4244 0.9055 0.0000
vn 0.4244 0.0000 -0.9055
vn -0.9055 0.0000 -0.4244
vn 0.9701 0.0000 0.2425
vn -0.9701 0.0000 0.2425
vn 0.0000 -0.9701 0.2425
vn 0.0000 -0.9055 -0.4244
vn 0.0000 0.9055 -0.4244
vn 0.9055 0.0000 -0.4244
vn -0.4244 0.0000 -0.9055
vn 0.2425 0.0000 0.9701
vn 0.2425 0.0000 -0.9701
vn 0.2425 -0.9701 0.0000
vn -0.4244 -0.9055 0.0000
vn -0.4244 0.9055 0.0000
vn -0.4244 0.0000 0.9055
vn 0.0000 0.4244 -0.9055
vn 0.0000 -0.2425 0.9701
vn 0.0000 -0.2425 -0.9701
vn 0.9701 -0.2425 0.0000
vn 0.9055 0.4244 0.0000
vn -0.9055 0.4244 0.0000
vn 0.0000 0.4244 0.9055
vn -0.9055 -0.4244 0.0000
vn -0.9701 0.2425 0.0000
vn 0.9701 0.2425 0.0000
vn 0.0000 0.2425 -0.9701
vn 0.9055 -0.4244 0.0000
vn 0.0000 -0.4244 -0.9055
vn 0.0000 -0.4244 0.9055
usemtl Material
s off
f 5/1/1 7/2/1 70/3/1 72/4/1
f 10/5/2 8/6/2 41/7/2 42/8/2
f 22/9/3 20/10/3 67/11/3 66/12/3
f 9/13/4 4/14/4 36/15/4 35/16/4
f 14/17/5 6/18/5 38/19/5 37/20/5
f 2/21/6 11/22/6 33/23/6 34/24/6
f 3/25/6 7/2/6 27/26/6 23/27/6
f 1/28/2 3/25/2 23/27/2 19/29/2
f 7/2/7 5/1/7 28/30/7 27/26/7
f 5/1/4 1/28/4 19/29/4 28/30/4
f 11/22/4 2/21/4 31/31/4 19/29/4
f 4/14/6 9/13/6 23/27/6 32/32/6
f 9/13/5 11/22/5 19/29/5 23/27/5
f 2/21/8 4/14/8 32/32/8 31/31/8
f 6/18/8 14/17/8 31/31/8 29/33/8
f 14/17/2 13/34/2 19/29/2 31/31/2
f 12/35/7 6/36/7 29/37/7 28/30/7
f 13/34/5 12/35/5 28/30/5 19/29/5
f 8/6/7 10/5/7 27/26/7 30/38/7
f 15/39/2 16/40/2 32/32/2 23/27/2
f 10/5/5 15/39/5 23/27/5 27/26/5
f 16/40/8 8/41/8 30/42/8 32/32/8
f 21/43/8 18/44/8 29/37/8 30/38/8
f 22/9/6 21/43/6 30/38/6 27/26/6
f 18/44/4 20/10/4 28/30/4 29/37/4
f 20/10/5 22/9/5 27/26/5 28/30/5
f 25/45/7 26/46/7 30/38/7 29/37/7
f 17/47/4 25/48/4 29/33/4 31/31/4
f 26/49/6 24/50/6 32/32/6 30/42/6
f 24/50/2 17/47/2 31/31/2 32/32/2
f 44/51/9 43/52/9 51/53/9 52/54/9
f 48/55/10 46/56/10 75/57/10 77/58/10
f 36/15/11 34/24/11 55/59/11 57/60/11
f 40/61/12 39/62/12 61/63/12 62/64/12
f 13/34/7 14/17/7 37/20/7 39/62/7
f 11/22/8 9/13/8 35/16/8 33/23/8
f 16/40/7 15/39/7 43/52/7 44/51/7
f 26/46/2 25/45/2 45/65/2 46/66/2
f 6/36/2 12/35/2 40/61/2 38/67/2
f 4/14/5 2/21/5 34/24/5 36/15/5
f 15/39/8 10/5/8 42/8/8 43/52/8
f 25/48/6 17/47/6 47/68/6 45/69/6
f 12/35/8 13/34/8 39/62/8 40/61/8
f 8/41/5 16/40/5 44/51/5 41/70/5
f 24/50/4 26/49/4 46/56/4 48/55/4
f 17/47/7 24/50/7 48/55/7 47/68/7
f 51/53/13 50/71/13 53/72/13
f 43/52/14 42/8/14 50/71/14 51/53/14
f 42/8/15 41/7/15 49/73/15 50/71/15
f 41/70/16 44/51/16 52/54/16 49/74/16
f 50/71/17 49/73/17 53/72/17
f 49/74/18 52/54/18 53/75/18
f 52/54/19 51/53/19 53/75/19
f 57/60/20 55/59/20 58/76/20
f 35/16/21 36/15/21 57/60/21 56/77/21
f 33/23/22 35/16/22 56/77/22 54/78/22
f 34/24/23 33/23/23 54/78/23 55/59/23
f 56/77/24 57/60/24 58/76/24
f 54/78/25 56/77/25 58/76/25
f 55/59/26 54/78/26 58/76/26
f 60/79/27 62/64/27 63/80/27
f 39/62/28 37/20/28 59/81/28 61/63/28
f 38/67/29 40/61/29 62/64/29 60/82/29
f 37/20/30 38/19/30 60/79/30 59/81/30
f 59/81/31 60/79/31 63/80/31
f 62/64/32 61/63/32 63/80/32
f 61/63/33 59/81/33 63/80/33
f 67/11/34 64/83/34 68/84/34
f 21/43/35 22/9/35 66/12/35 65/85/35
f 20/10/36 18/44/36 64/83/36 67/11/36
f 18/44/37 21/43/37 65/85/37 64/83/37
f 64/83/38 65/85/38 68/84/38
f 66/12/39 67/11/39 68/84/39
f 65/85/40 66/12/40 68/84/40
f 71/86/41 72/4/41 73/87/41
f 7/2/42 3/25/42 69/88/42 70/3/42
f 1/28/43 5/1/43 72/4/43 71/86/43
f 3/25/44 1/28/44 71/86/44 69/88/44
f 69/88/45 71/86/45 73/87/45
f 72/4/46 70/3/46 73/87/46
f 70/3/47 69/88/47 73/87/47
f 75/89/48 74/90/48 78/91/48
f 46/66/49 45/65/49 74/90/49 75/89/49
f 47/68/50 48/55/50 77/58/50 76/92/50
f 45/69/51 47/68/51 76/92/51 74/93/51
f 76/92/52 77/58/52 78/94/52
f 74/93/53 76/92/53 78/94/53
f 77/58/54 75/57/54 78/94/54
