# Blender v2.92.0 OBJ File: ''
# www.blender.org
mtllib saw.mtl
o Cube
v 0.137063 0.883018 -1.393833
v 0.137063 0.520772 -1.533834
v 0.171355 0.364307 -1.162180
v 0.171355 0.823663 -1.003151
v 0.025703 -0.319506 1.530455
v 0.025703 -0.115481 0.953087
v 0.025703 0.109139 1.034444
v 0.025703 -0.136665 1.562863
v 0.025703 0.157678 1.800000
v 0.025703 -0.804789 1.800000
v 0.171355 0.384637 -1.800000
v 0.025703 -0.969413 1.428768
v 0.025703 -0.725387 1.284616
v 0.025703 -0.865327 0.982845
v 0.025703 -0.509468 0.745995
v 0.025703 -0.609223 0.363668
v 0.025703 -0.279683 0.184811
v 0.003855 -0.371159 -0.158332
v 0.025703 -0.083374 -0.298442
v 0.171355 1.122286 -1.554913
v 0.171355 0.898809 -0.349802
v -0.171355 0.823663 -1.003151
v -0.171355 0.898809 -0.349802
v -0.119918 0.520772 -1.533834
v -0.171355 0.384637 -1.800000
v -0.119918 0.883018 -1.393833
v -0.171355 0.364307 -1.162180
v -0.025703 -0.136665 1.562863
v -0.025703 0.157678 1.800000
v -0.025703 -0.115481 0.953087
v -0.025703 -0.279683 0.184811
v -0.025703 -0.319506 1.530455
v -0.025703 0.109139 1.034444
v -0.025703 -0.804789 1.800000
v -0.025703 -0.969413 1.428768
v -0.025703 -0.725387 1.284616
v -0.025703 -0.865327 0.982845
v -0.025703 -0.509468 0.745995
v -0.025703 -0.609223 0.363668
v -0.003855 -0.371159 -0.158332
v -0.025703 -0.083374 -0.298442
v -0.171355 1.122286 -1.554913
v 0.137063 0.937612 -1.582895
v 0.137063 0.879604 -1.395153
v -0.119918 0.929285 -1.585662
v -0.119918 0.587392 -1.699257
v 0.137064 0.590286 -1.698296
v 0.137063 0.589362 -1.694651
v 0.165697 1.029789 -1.581648
v -0.157403 1.025098 -1.584513
v -0.000000 0.362870 -1.852687
v 0.000000 1.164961 -1.587850
v 0.130605 0.762326 -1.634411
v -0.112568 0.756444 -1.635243
v 0.008817 0.941016 -1.635742
v -0.160742 0.494513 -1.763565
v 0.169238 0.494723 -1.762664
v 0.008470 0.608602 -1.746481
v 0.008549 0.771451 -1.678354
v 0.005006 1.057518 -1.638493
v 0.004430 0.493193 -1.829433
v 0.136853 0.881376 -1.394704
v -0.081490 0.706335 -1.478375
v 0.008573 0.550196 -1.466576
v 0.008573 0.837563 -1.370570
v 0.130916 0.849602 -1.606707
v 0.118774 0.702447 -1.471891
v -0.112996 0.842470 -1.608230
v -0.142246 0.900929 -1.491342
v 0.171768 0.905685 -1.490167
v -0.140000 0.557857 -1.614622
v 0.142808 0.557245 -1.613067
v 0.137348 0.589867 -1.696460
v 0.130636 0.675633 -1.664384
v -0.112492 0.671097 -1.664935
v -0.118807 0.104823 -0.902251
v -0.170234 0.726085 0.151219
v 0.121642 0.112895 -0.928148
v 0.170833 0.730775 0.137616
vt 0.572741 0.531789
vt 0.572563 0.531728
vt 0.575585 0.523034
vt 0.512319 0.750000
vt 0.489323 0.733532
vt 0.508527 0.696836
vt 0.490978 0.691187
vt 0.478150 0.637834
vt 0.471003 0.614005
vt 0.493486 0.604275
vt 0.508820 0.560545
vt 0.557092 0.634557
vt 0.437126 0.750000
vt 0.424265 0.724220
vt 0.443329 0.714209
vt 0.432396 0.693253
vt 0.460198 0.676805
vt 0.452404 0.650255
vt 0.475039 0.731282
vt 0.570219 0.600708
vt 0.587679 0.517020
vt 0.582709 0.515552
vt 0.577739 0.514084
vt 0.575329 0.522967
vt 0.572919 0.531850
vt 0.564349 0.555337
vt 0.512319 0.750000
vt 0.556725 0.635501
vt 0.508189 0.562344
vt 0.493486 0.604275
vt 0.471003 0.614005
vt 0.478150 0.637834
vt 0.490978 0.691187
vt 0.508527 0.696836
vt 0.489323 0.733532
vt 0.437126 0.750000
vt 0.475039 0.731282
vt 0.452404 0.650255
vt 0.460198 0.676805
vt 0.432396 0.693253
vt 0.443329 0.714209
vt 0.424265 0.724220
vt 0.553870 0.525306
vt 0.572919 0.531850
vt 0.554048 0.525367
vt 0.535177 0.518884
vt 0.535177 0.518884
vt 0.528461 0.544293
vt 0.528461 0.544293
vt 0.564349 0.555337
vt 0.536159 0.501804
vt 0.536084 0.501782
vt 0.542118 0.503564
vt 0.542269 0.503609
vt 0.587679 0.517020
vt 0.587679 0.517020
vt 0.570219 0.600708
vt 0.582926 0.515616
vt 0.583143 0.515680
vt 0.551023 0.506194
vt 0.559929 0.508824
vt 0.551467 0.506325
vt 0.542324 0.503991
vt 0.542372 0.503822
vt 0.538648 0.511224
vt 0.530050 0.500000
vt 0.535177 0.518884
vt 0.578607 0.514341
vt 0.569560 0.511669
vt 0.578173 0.514213
vt 0.530050 0.500000
vt 0.536235 0.501827
vt 0.542420 0.503653
vt 0.538750 0.511438
vt 0.568834 0.511454
vt 0.560221 0.508911
vt 0.560513 0.508997
vt 0.530050 0.500000
vt 0.572919 0.531850
vn 0.9370 0.0229 0.3485
vn 0.9884 -0.1498 0.0268
vn 1.0000 0.0000 0.0000
vn -0.9946 -0.0961 -0.0395
vn -0.9883 -0.1499 0.0266
vn -1.0000 0.0000 0.0000
vn 0.0000 -0.9676 0.2525
vn 0.0000 -0.3406 0.9402
vn -0.0374 -0.6189 0.7846
vn 0.0000 -0.4770 -0.8789
vn 0.0000 0.0000 1.0000
vn 0.3718 0.8674 0.3308
vn 0.0000 -0.9663 0.2576
vn 0.0000 -0.9067 -0.4218
vn 0.0000 0.3271 -0.9450
vn 0.0000 -0.4377 -0.8991
vn 0.0000 -0.9141 0.4054
vn 0.0000 -0.9547 -0.2976
vn 0.0000 -0.5086 -0.8610
vn -0.3244 0.5917 -0.7380
vn 0.0000 -0.9072 0.4207
vn 0.0000 0.1745 -0.9847
vn -0.0000 0.9805 0.1965
vn 0.0000 -0.5541 -0.8325
vn 0.0000 0.9429 0.3332
vn -0.0000 0.9454 0.3259
vn -0.2986 -0.9369 -0.1817
vn 0.3122 0.3420 -0.8863
vn -0.9826 -0.0617 0.1750
vn 0.9869 0.0173 0.1601
vn -0.9746 -0.0556 0.2168
vn 0.3768 0.2173 -0.9004
vn 0.9898 0.0804 0.1174
vn -0.3525 0.2788 -0.8933
vn -0.3740 0.3801 -0.8460
vn 0.3426 0.3071 -0.8879
vn -0.3059 0.3229 -0.8956
vn -0.3262 -0.0706 -0.9427
vn 0.3499 -0.0484 -0.9355
vn -0.3068 0.2476 -0.9190
vn 0.3118 0.2294 -0.9221
vn 0.3278 0.5699 -0.7535
vn 0.3718 0.3668 -0.8528
vn 0.3780 0.3571 -0.8541
vn -0.3527 0.3072 -0.8839
vn -0.3891 0.3557 -0.8498
vn -0.3710 0.2058 -0.9055
vn -0.3846 0.2255 -0.8951
vn 0.3435 0.2830 -0.8955
vn 0.3815 0.2247 -0.8966
vn -0.8976 0.4365 -0.0607
vn -0.9918 0.0582 0.1134
vn 0.3014 -0.9384 -0.1690
vn 0.0000 -0.9993 -0.0378
vn -0.3665 0.8746 0.3175
vn 0.0000 0.8534 0.5212
vn 0.9983 -0.0544 -0.0223
vn 0.9344 -0.2183 0.2814
vn 0.9392 0.0270 -0.3422
vn 0.9428 -0.2641 -0.2034
vn 0.9977 -0.0238 0.0639
vn 0.9927 0.0652 0.1020
vn 0.9916 0.1211 0.0442
vn 0.9977 -0.0220 0.0645
vn 0.9845 0.1236 -0.1244
vn 0.9956 0.0868 -0.0359
vn 0.3169 -0.4756 0.8206
vn 0.2495 -0.2098 0.9454
vn 0.2979 -0.4052 0.8643
vn 0.4006 -0.2593 0.8788
vn -0.4242 -0.1776 0.8880
vn -0.3142 -0.4645 0.8279
vn -0.0312 0.0574 0.9979
vn -0.9719 -0.0164 -0.2350
vn -0.9447 -0.2840 0.1642
vn -0.9513 0.1111 0.2875
vn -0.9717 0.1581 -0.1754
vn -0.9826 -0.0600 0.1755
vn -0.9493 -0.3022 -0.0864
vn -0.9545 0.2789 0.1059
vn -0.0000 -0.9612 -0.2760
vn -0.9986 -0.0508 0.0143
vn 0.9984 -0.0555 0.0136
usemtl Material
s off
f 62/1/1 44/2/1 70/3/1
f 9/4/2 8/5/2 7/6/2 6/7/2 17/8/2 18/9/2 19/10/2 78/11/2 79/12/2
f 10/13/3 12/14/3 13/15/3 14/16/3 15/17/3 16/18/3 17/8/3 6/7/3 5/19/3 8/5/3 9/4/3
f 23/20/4 42/21/4 50/22/4 45/23/4 69/24/4 26/25/4 22/26/4
f 29/27/5 77/28/5 76/29/5 41/30/5 40/31/5 31/32/5 30/33/5 33/34/5 28/35/5
f 34/36/6 29/27/6 28/35/6 32/37/6 30/33/6 31/32/6 39/38/6 38/39/6 37/40/6 36/41/6 35/42/6
f 15/17/7 38/39/7 39/38/7 16/18/7
f 7/6/8 33/34/8 30/33/8 6/7/8
f 67/43/9 65/44/9 63/45/9
f 16/18/10 39/38/10 31/32/10 17/8/10
f 9/4/11 29/27/11 34/36/11 10/13/11
f 2/46/12 64/47/12 3/48/12
f 17/8/13 31/32/13 40/31/13 18/9/13
f 8/5/14 28/35/14 33/34/14 7/6/14
f 3/48/15 27/49/15 22/26/15 4/50/15
f 18/9/16 40/31/16 41/30/16 19/10/16
f 10/13/17 34/36/17 35/42/17 12/14/17
f 19/10/18 41/30/18 76/29/18 78/11/18
f 12/14/19 35/42/19 36/41/19 13/15/19
f 61/51/20 56/52/20 46/53/20 58/54/20
f 13/15/21 36/41/21 37/40/21 14/16/21
f 5/19/22 32/37/22 28/35/22 8/5/22
f 20/55/23 52/56/23 42/21/23 23/20/23 21/57/23
f 14/16/24 37/40/24 38/39/24 15/17/24
f 6/7/25 30/33/25 32/37/25 5/19/25
f 21/57/26 23/20/26 77/28/26 79/12/26
f 26/25/27 65/44/27 22/26/27
f 60/58/28 52/56/28 20/55/28 49/59/28
f 75/60/29 63/45/29 54/61/29
f 74/62/30 48/63/30 73/64/30
f 71/65/31 25/66/31 24/67/31
f 43/68/32 66/69/32 55/70/32
f 2/46/33 11/71/33 57/72/33 47/73/33 73/64/33 48/63/33 72/74/33
f 54/61/34 68/75/34 59/76/34
f 46/53/35 75/60/35 58/54/35
f 53/77/36 74/62/36 59/76/36
f 50/22/37 42/21/37 52/56/37 60/58/37
f 45/23/38 50/22/38 60/58/38 55/70/38
f 55/70/39 60/58/39 49/59/39 43/68/39
f 51/78/40 25/66/40 56/52/40 61/51/40
f 11/71/41 51/78/41 61/51/41 57/72/41
f 57/72/42 61/51/42 58/54/42 47/73/42
f 58/54/43 74/62/43 47/73/43
f 59/76/44 74/62/44 58/54/44
f 75/60/45 54/61/45 59/76/45
f 58/54/46 75/60/46 59/76/46
f 68/75/47 45/23/47 55/70/47
f 59/76/48 68/75/48 55/70/48
f 59/76/49 66/69/49 53/77/49
f 55/70/50 66/69/50 59/76/50
f 46/53/51 56/52/51 71/65/51
f 56/52/52 25/66/52 71/65/52
f 4/50/53 65/44/53 1/79/53
f 22/26/54 65/44/54 4/50/54
f 64/47/55 24/67/55 27/49/55
f 3/48/56 64/47/56 27/49/56
f 21/57/57 4/50/57 1/79/57 62/1/57 70/3/57 43/68/57 49/59/57 20/55/57
f 67/43/58 70/3/58 44/2/58
f 70/3/59 66/69/59 43/68/59
f 70/3/60 67/43/60 66/69/60
f 66/69/61 67/43/61 53/77/61
f 2/46/62 72/74/62 67/43/62
f 72/74/63 74/62/63 67/43/63
f 74/62/64 53/77/64 67/43/64
f 74/62/65 73/64/65 47/73/65
f 48/63/66 74/62/66 72/74/66
f 65/44/67 62/1/67 1/79/67
f 62/1/68 65/44/68 44/2/68
f 44/2/69 65/44/69 67/43/69
f 67/43/70 64/47/70 2/46/70
f 64/47/71 63/45/71 24/67/71
f 63/45/72 65/44/72 26/25/72
f 67/43/73 63/45/73 64/47/73
f 68/75/74 69/24/74 45/23/74
f 69/24/75 63/45/75 26/25/75
f 63/45/76 71/65/76 24/67/76
f 71/65/77 75/60/77 46/53/77
f 54/61/78 63/45/78 68/75/78
f 68/75/79 63/45/79 69/24/79
f 71/65/80 63/45/80 75/60/80
f 76/29/81 25/66/81 51/78/81 11/71/81 78/11/81
f 77/28/82 23/20/82 22/26/82 27/49/82 24/67/82 25/66/82 76/29/82
f 78/11/83 11/71/83 2/46/83 3/48/83 4/50/83 21/57/83 79/12/83
f 77/28/26 29/27/26 9/4/26 79/12/26
