# Blender v2.92.0 OBJ File: 'tick.blend'
# www.blender.org
mtllib tick.mtl
o Cube
v 0.125000 1.000000 -0.125000
v 1.000000 -0.125000 -0.125000
v 0.125000 1.000000 0.125000
v 1.000000 -0.125000 0.125000
v -0.125000 1.000000 -0.125000
v -0.125000 -0.125000 -1.000000
v -0.125000 1.000000 0.125000
v 1.000000 0.125000 0.125000
v 1.000000 0.125000 -0.125000
v -0.125000 0.125000 -1.000000
v 0.125000 0.125000 -1.000000
v 0.125000 -0.125000 -1.000000
v 0.125000 0.125000 -0.125000
v 0.125000 0.125000 0.125000
v -0.125000 0.250000 0.125000
v -0.125000 0.125000 -0.125000
v -0.125000 -0.125000 -0.250000
v -0.125000 -0.125000 0.125000
v 0.125000 -0.125000 -0.125000
v 0.250000 -0.125000 0.125000
vt 0.250000 0.500000
vt 0.000000 0.500000
vt 0.000000 0.250000
vt 0.250000 0.250000
vt 0.250000 0.750000
vt 0.250000 1.000000
vt 0.000000 1.000000
vt 0.000000 0.750000
vt 0.750000 0.750000
vt 0.750000 1.000000
vt 0.500000 1.000000
vt 0.500000 0.750000
vt 0.000000 0.500000
vt 0.250000 0.500000
vt 0.250000 0.250000
vt 0.000000 0.250000
vt 0.000000 0.500000
vt 0.000000 0.250000
vt 0.250000 0.250000
vt 0.250000 0.500000
vt 0.250000 0.250000
vt 0.250000 0.500000
vt 0.000000 0.500000
vt 0.000000 0.250000
vt 0.000000 0.250000
vt 0.250000 0.250000
vt 0.250000 0.500000
vt 0.000000 1.000000
vt 0.000000 0.750000
vt 0.250000 0.750000
vt 0.250000 1.000000
vt 0.250000 0.750000
vt 0.250000 1.000000
vt 0.000000 1.000000
vt 0.000000 0.750000
vt 0.250000 0.750000
vt 0.000000 1.000000
vt 0.000000 0.750000
vt 0.250000 1.000000
vt 0.000000 1.000000
vt 0.000000 0.750000
vt 0.750000 1.000000
vt 0.500000 1.000000
vt 0.500000 0.750000
vt 0.750000 0.750000
vt 0.750000 1.000000
vt 0.500000 1.000000
vt 0.500000 0.750000
vt 0.500000 1.000000
vt 0.500000 0.750000
vt 0.750000 0.750000
vt 0.750000 1.000000
vt 0.750000 0.750000
vt 0.500000 1.000000
vt 0.500000 0.750000
vt 0.250000 0.250000
vt 0.250000 0.250000
vt 0.000000 0.500000
vt 0.000000 0.500000
vt 0.750000 0.750000
vt 0.750000 0.750000
vt 0.500000 1.000000
vt 0.750000 0.750000
vt 0.250000 0.750000
vt 0.250000 0.750000
vt 0.000000 1.000000
vt 0.250000 0.750000
vn 0.0000 1.0000 0.0000
vn 1.0000 0.0000 0.0000
vn 0.0000 0.0000 -1.0000
vn -0.0000 -0.0000 1.0000
vn -1.0000 -0.0000 0.0000
vn -0.0000 -1.0000 0.0000
usemtl Material
s off
f 1/1/1 5/2/1 7/3/1 3/4/1
f 2/5/2 9/6/2 8/7/2 4/8/2
f 6/9/3 10/10/3 11/11/3 12/12/3
f 3/13/4 7/14/4 15/15/4 14/16/4
f 1/17/2 3/18/2 14/19/2 13/20/2
f 7/21/5 5/22/5 16/23/5 15/24/5
f 5/2/3 1/25/3 13/26/3 16/27/3
f 9/28/3 2/29/3 19/30/3 13/31/3
f 4/32/4 8/33/4 14/34/4 20/35/4
f 8/36/1 9/6/1 13/37/1 14/38/1
f 2/5/6 4/39/6 20/40/6 19/41/6
f 6/9/6 12/42/6 19/43/6 17/44/6
f 12/45/2 11/46/2 13/47/2 19/48/2
f 10/49/5 6/50/5 17/51/5 16/52/5
f 11/53/1 10/10/1 16/54/1 13/55/1
f 17/56/6 19/57/6 20/58/6 18/59/6
f 20/60/4 14/61/4 15/62/4 18/63/4
f 18/64/5 15/65/5 16/66/5 17/67/5
