# Blender v2.92.0 OBJ File: 'top.blend'
# www.blender.org
mtllib top.mtl
o Cylinder
v 0.000000 -1.000000 -0.000000
v 0.000000 0.000000 -1.000000
v 0.195090 0.000000 -0.980785
v 0.382683 0.000000 -0.923880
v 0.555570 0.000000 -0.831470
v 0.707107 0.000000 -0.707107
v 0.831470 0.000000 -0.555570
v 0.923880 0.000000 -0.382683
v 0.980785 0.000000 -0.195090
v 1.000000 0.000000 -0.000000
v 0.980785 0.000000 0.195090
v 0.923880 0.000000 0.382683
v 0.831470 0.000000 0.555570
v 0.707107 0.000000 0.707107
v 0.555570 0.000000 0.831470
v 0.382683 0.000000 0.923880
v 0.195090 0.000000 0.980785
v -0.000000 0.000000 1.000000
v -0.195091 0.000000 0.980785
v -0.382684 0.000000 0.923879
v -0.555571 0.000000 0.831469
v -0.707107 0.000000 0.707106
v -0.831470 0.000000 0.555570
v -0.923880 0.000000 0.382683
v -0.980785 0.000000 0.195089
v -1.000000 0.000000 -0.000001
v -0.980785 0.000000 -0.195091
v -0.923879 0.000000 -0.382684
v -0.831469 0.000000 -0.555571
v -0.707106 0.000000 -0.707108
v -0.555569 0.000000 -0.831470
v -0.382682 0.000000 -0.923880
v -0.195089 0.000000 -0.980786
v 0.000000 1.000000 -0.000000
vt 0.787054 0.348551
vt 0.459329 0.409003
vt 0.446933 0.370340
vt 0.442187 0.327639
vt 0.445271 0.282543
vt 0.456069 0.236784
vt 0.474164 0.192120
vt 0.498861 0.150269
vt 0.529212 0.112838
vt 0.564050 0.081266
vt 0.602036 0.056766
vt 0.641710 0.040279
vt 0.681548 0.032440
vt 0.720019 0.033549
vt 0.755644 0.043564
vt 0.787054 0.062100
vt 0.779140 0.642303
vt 0.779140 0.948904
vt 0.744729 0.962516
vt 0.706574 0.967560
vt 0.666143 0.963844
vt 0.624988 0.951508
vt 0.584692 0.931029
vt 0.546803 0.903192
vt 0.512777 0.869067
vt 0.483922 0.829966
vt 0.461347 0.787391
vt 0.445918 0.742979
vt 0.438230 0.698436
vt 0.438577 0.655474
vt 0.446947 0.615744
vt 0.463017 0.580773
vt 0.486169 0.551904
vt 0.536296 0.487025
vt 0.504885 0.468488
vt 0.310272 0.485915
vt 0.271801 0.487024
vt 0.377307 0.170913
vt 0.478897 0.442144
vt 0.106987 0.650398
vt 0.141013 0.616273
vt 0.373350 0.877162
vt 0.095139 0.050976
vt 0.126549 0.032440
vt 0.154303 0.438199
vt 0.119465 0.406626
vt 0.260352 0.555621
vt 0.300784 0.551904
vt 0.032787 0.863991
vt 0.032440 0.821029
vt 0.046322 0.282680
vt 0.035524 0.236921
vt 0.345897 0.475900
vt 0.078132 0.689499
vt 0.069150 0.077321
vt 0.192289 0.462699
vt 0.219198 0.567956
vt 0.041156 0.903721
vt 0.064417 0.327344
vt 0.377307 0.457364
vt 0.055556 0.732073
vt 0.037187 0.149125
vt 0.049582 0.110461
vt 0.231963 0.479185
vt 0.178902 0.588436
vt 0.057226 0.938692
vt 0.089114 0.369195
vt 0.338939 0.556949
vt 0.373350 0.570561
vt 0.040128 0.776486
vt 0.032440 0.191825
vt 0.080379 0.967560
vn 0.0695 -0.7054 -0.7054
vn 0.2058 -0.7054 -0.6783
vn 0.3341 -0.7054 -0.6251
vn 0.4497 -0.7054 -0.5479
vn 0.5479 -0.7054 -0.4497
vn 0.6251 -0.7054 -0.3341
vn 0.6783 -0.7054 -0.2058
vn 0.7054 -0.7054 -0.0695
vn 0.7054 -0.7054 0.0695
vn 0.6783 -0.7054 0.2058
vn 0.6251 -0.7054 0.3341
vn 0.5479 -0.7054 0.4497
vn 0.4497 -0.7054 0.5479
vn 0.3341 -0.7054 0.6251
vn 0.2058 -0.7054 0.6783
vn 0.0695 -0.7054 0.7054
vn -0.0695 -0.7054 0.7054
vn -0.2058 -0.7054 0.6783
vn -0.3341 -0.7054 0.6251
vn -0.4497 -0.7054 0.5479
vn -0.5479 -0.7054 0.4497
vn -0.6251 -0.7054 0.3341
vn -0.6783 -0.7054 0.2058
vn -0.7054 -0.7054 0.0695
vn -0.7054 -0.7054 -0.0695
vn -0.6783 -0.7054 -0.2058
vn -0.6251 -0.7054 -0.3341
vn -0.5479 -0.7054 -0.4497
vn -0.4497 -0.7054 -0.5479
vn -0.3341 -0.7054 -0.6251
vn 0.5479 0.7054 0.4497
vn -0.2058 -0.7054 -0.6783
vn -0.0695 -0.7054 -0.7054
vn -0.5479 0.7054 0.4497
vn -0.3341 0.7054 -0.6251
vn 0.7054 0.7054 -0.0695
vn -0.0695 0.7054 0.7054
vn -0.6783 0.7054 -0.2058
vn 0.4497 0.7054 -0.5479
vn 0.4497 0.7054 0.5479
vn -0.6251 0.7054 0.3341
vn -0.2058 0.7054 -0.6783
vn 0.7054 0.7054 0.0695
vn -0.2058 0.7054 0.6783
vn -0.6251 0.7054 -0.3341
vn 0.5479 0.7054 -0.4497
vn 0.3341 0.7054 0.6251
vn -0.6783 0.7054 0.2058
vn 0.0695 0.7054 -0.7054
vn -0.0695 0.7054 -0.7054
vn 0.6783 0.7054 0.2058
vn -0.3341 0.7054 0.6251
vn -0.5479 0.7054 -0.4497
vn 0.6251 0.7054 -0.3341
vn 0.2058 0.7054 0.6783
vn -0.7054 0.7054 0.0695
vn 0.2058 0.7054 -0.6783
vn 0.6251 0.7054 0.3341
vn -0.4497 0.7054 0.5479
vn -0.4497 0.7054 -0.5479
vn 0.6783 0.7054 -0.2058
vn 0.0695 0.7054 0.7054
vn -0.7054 0.7054 -0.0695
vn 0.3341 0.7054 -0.6251
usemtl Material.001
s off
f 1/1/1 2/2/1 3/3/1
f 1/1/2 3/3/2 4/4/2
f 1/1/3 4/4/3 5/5/3
f 1/1/4 5/5/4 6/6/4
f 1/1/5 6/6/5 7/7/5
f 1/1/6 7/7/6 8/8/6
f 1/1/7 8/8/7 9/9/7
f 1/1/8 9/9/8 10/10/8
f 1/1/9 10/10/9 11/11/9
f 1/1/10 11/11/10 12/12/10
f 1/1/11 12/12/11 13/13/11
f 1/1/12 13/13/12 14/14/12
f 1/1/13 14/14/13 15/15/13
f 1/1/14 15/15/14 16/16/14
f 1/17/15 16/18/15 17/19/15
f 1/17/16 17/19/16 18/20/16
f 1/17/17 18/20/17 19/21/17
f 1/17/18 19/21/18 20/22/18
f 1/17/19 20/22/19 21/23/19
f 1/17/20 21/23/20 22/24/20
f 1/17/21 22/24/21 23/25/21
f 1/17/22 23/25/22 24/26/22
f 1/17/23 24/26/23 25/27/23
f 1/17/24 25/27/24 26/28/24
f 1/17/25 26/28/25 27/29/25
f 1/17/26 27/29/26 28/30/26
f 1/17/27 28/30/27 29/31/27
f 1/17/28 29/31/28 30/32/28
f 1/17/29 30/32/29 31/33/29
f 1/1/30 31/34/30 32/35/30
f 14/36/31 13/37/31 34/38/31
f 1/1/32 32/35/32 33/39/32
f 1/1/33 33/39/33 2/2/33
f 23/40/34 22/41/34 34/42/34
f 32/43/35 31/44/35 34/38/35
f 10/45/36 9/46/36 34/38/36
f 19/47/37 18/48/37 34/42/37
f 28/49/38 27/50/38 34/42/38
f 6/51/39 5/52/39 34/38/39
f 15/53/40 14/36/40 34/38/40
f 24/54/41 23/40/41 34/42/41
f 33/55/42 32/43/42 34/38/42
f 11/56/43 10/45/43 34/38/43
f 20/57/44 19/47/44 34/42/44
f 29/58/45 28/49/45 34/42/45
f 7/59/46 6/51/46 34/38/46
f 16/60/47 15/53/47 34/38/47
f 25/61/48 24/54/48 34/42/48
f 3/62/49 2/63/49 34/38/49
f 2/63/50 33/55/50 34/38/50
f 12/64/51 11/56/51 34/38/51
f 21/65/52 20/57/52 34/42/52
f 30/66/53 29/58/53 34/42/53
f 8/67/54 7/59/54 34/38/54
f 17/68/55 16/69/55 34/42/55
f 26/70/56 25/61/56 34/42/56
f 4/71/57 3/62/57 34/38/57
f 13/37/58 12/64/58 34/38/58
f 22/41/59 21/65/59 34/42/59
f 31/72/60 30/66/60 34/42/60
f 9/46/61 8/67/61 34/38/61
f 18/48/62 17/68/62 34/42/62
f 27/50/63 26/70/63 34/42/63
f 5/52/64 4/71/64 34/38/64
